<svg width="12" height="25" viewBox="0 0 12 25" fill="none" xmlns="http://www.w3.org/2000/svg">
<path d="M0.367535 13.0277H2.86538V24.066C2.86538 24.2839 3.02989 24.4605 3.23291 24.4605H7.4681C7.67112 24.4605 7.83563 24.2839 7.83563 24.066V13.0797H10.7071C10.8938 13.0797 11.0509 12.9293 11.0722 12.7302L11.5083 8.66644C11.5203 8.55463 11.4873 8.44267 11.4176 8.35879C11.3479 8.27484 11.248 8.22678 11.1433 8.22678H7.83578V5.67942C7.83578 4.91151 8.22095 4.52212 8.98072 4.52212C9.089 4.52212 11.1433 4.52212 11.1433 4.52212C11.3463 4.52212 11.5108 4.34545 11.5108 4.12759V0.397444C11.5108 0.179509 11.3463 0.00291948 11.1433 0.00291948H8.16296C8.14193 0.00181481 8.09526 0 8.02645 0C7.50933 0 5.71186 0.108968 4.292 1.51111C2.7188 3.0649 2.93749 4.92532 2.98975 5.24789V8.22671H0.367535C0.164509 8.22671 0 8.40329 0 8.62123V12.6331C0 12.851 0.164509 13.0277 0.367535 13.0277Z" fill="#8EC63F"/>
</svg>
