<svg width="24" height="25" viewBox="0 0 24 25" fill="none" xmlns="http://www.w3.org/2000/svg">
<path d="M6.15755 7.85933H1.53592C1.3308 7.85933 1.1646 8.03638 1.1646 8.25471V24.0645C1.1646 24.2829 1.3308 24.4599 1.53592 24.4599H6.15755C6.36266 24.4599 6.52887 24.2829 6.52887 24.0645V8.25471C6.52887 8.03638 6.36266 7.85933 6.15755 7.85933Z" fill="#8EC63F"/>
<path d="M3.8484 0C2.16679 0 0.798706 1.45518 0.798706 3.24383C0.798706 5.03327 2.16679 6.489 3.8484 6.489C5.52869 6.489 6.89565 5.03319 6.89565 3.24383C6.89572 1.45518 5.52869 0 3.8484 0Z" fill="#8EC63F"/>
<path d="M17.913 7.46699C16.0568 7.46699 14.6847 8.31667 13.8524 9.28213V8.25531C13.8524 8.03698 13.6862 7.85992 13.4811 7.85992H9.05505C8.84993 7.85992 8.68373 8.03698 8.68373 8.25531V24.0651C8.68373 24.2835 8.84993 24.4604 9.05505 24.4604H13.6666C13.8717 24.4604 14.0379 24.2835 14.0379 24.0651V16.2429C14.0379 13.607 14.7103 12.5801 16.4359 12.5801C18.3152 12.5801 18.4645 14.2264 18.4645 16.3785V24.0651C18.4645 24.2836 18.6307 24.4605 18.8358 24.4605H23.4491C23.6542 24.4605 23.8204 24.2836 23.8204 24.0651V15.3932C23.8204 11.4738 23.1185 7.46699 17.913 7.46699Z" fill="#8EC63F"/>
</svg>
