<svg width="20" height="25" viewBox="0 0 20 25" fill="none" xmlns="http://www.w3.org/2000/svg">
<path d="M16.9496 2.5066C15.3114 0.890236 13.0443 0 10.566 0C6.78035 0 4.45196 1.59496 3.16534 2.9329C1.57965 4.58175 0.67041 6.77112 0.67041 8.93972C0.67041 11.6625 1.7785 13.7524 3.63411 14.5299C3.75868 14.5824 3.88405 14.6088 4.00694 14.6088C4.39842 14.6088 4.70859 14.3455 4.81606 13.9232C4.87872 13.6809 5.02383 13.0832 5.08696 12.8238C5.22203 12.3114 5.11289 12.0649 4.81829 11.7081C4.28161 11.0554 4.03167 10.2836 4.03167 9.27911C4.03167 6.29553 6.19318 3.12462 10.1993 3.12462C13.3781 3.12462 15.3526 4.98153 15.3526 7.97061C15.3526 9.85685 14.9573 11.6037 14.2393 12.8896C13.7404 13.783 12.863 14.8481 11.5162 14.8481C10.9338 14.8481 10.4106 14.6022 10.0804 14.1735C9.76859 13.7682 9.66577 13.2447 9.79123 12.699C9.9329 12.0825 10.1261 11.4395 10.3131 10.8178C10.6542 9.68243 10.9766 8.61003 10.9766 7.75443C10.9766 6.29099 10.1012 5.30764 8.79855 5.30764C7.14305 5.30764 5.84606 7.03585 5.84606 9.24209C5.84606 10.3241 6.12583 11.1334 6.2525 11.4441C6.04393 12.3523 4.80444 17.7518 4.56933 18.77C4.43337 19.3644 3.61445 24.0589 4.96991 24.4332C6.49286 24.8538 7.85418 20.2817 7.99274 19.765C8.10504 19.3448 8.49795 17.756 8.73873 16.7793C9.47394 17.5072 10.6577 17.9993 11.8095 17.9993C13.9809 17.9993 15.9337 16.9949 17.3083 15.1715C18.6413 13.4029 19.3755 10.9378 19.3755 8.23069C19.3754 6.11436 18.4911 4.02794 16.9496 2.5066Z" fill="#8EC63F"/>
</svg>
