<svg width="29" height="25" viewBox="0 0 29 25" fill="none" xmlns="http://www.w3.org/2000/svg">
<path d="M28.3479 2.82294C27.8959 3.03108 27.431 3.20678 26.9561 3.34945C27.5184 2.68926 27.9471 1.91248 28.2087 1.06247C28.2674 0.87195 28.2066 0.663401 28.0558 0.538762C27.9051 0.414064 27.6958 0.399126 27.5299 0.501183C26.5213 1.12222 25.4332 1.56855 24.2922 1.8295C23.1429 0.663576 21.5819 0 19.9681 0C16.5617 0 13.7904 2.87709 13.7904 6.41344C13.7904 6.69195 13.8074 6.96895 13.841 7.24209C9.61403 6.8568 5.68427 4.69982 2.98575 1.2632C2.88958 1.14072 2.74143 1.07466 2.58973 1.08733C2.43797 1.09964 2.30156 1.18851 2.2249 1.32511C1.67757 2.30011 1.38823 3.41527 1.38823 4.54992C1.38823 6.09531 1.91965 7.56151 2.85844 8.70725C2.57298 8.60461 2.296 8.47635 2.03161 8.32399C1.88969 8.24195 1.71647 8.24323 1.57545 8.32714C1.43437 8.41111 1.34591 8.56545 1.34214 8.73421C1.34146 8.76262 1.34146 8.79104 1.34146 8.81987C1.34146 11.1266 2.53729 13.2034 4.36559 14.3353C4.20849 14.319 4.05157 14.2954 3.8956 14.2644C3.7348 14.2325 3.5695 14.291 3.46108 14.4184C3.35249 14.5456 3.31652 14.7229 3.3666 14.8848C4.04331 17.0783 5.78561 18.6917 7.8919 19.1836C6.14493 20.3196 4.14717 20.9146 2.04999 20.9146C1.61237 20.9146 1.17229 20.8879 0.741587 20.835C0.527613 20.8086 0.323026 20.9398 0.250128 21.151C0.17723 21.3624 0.254512 21.598 0.436505 21.7192C3.1307 23.5126 6.24593 24.4605 9.4453 24.4605C15.7348 24.4605 19.6694 21.3814 21.8625 18.7982C24.5973 15.5773 26.1657 11.314 26.1657 7.10158C26.1657 6.92559 26.1631 6.74791 26.1579 6.57076C27.2368 5.72681 28.1657 4.70543 28.9217 3.53151C29.0365 3.35324 29.0241 3.11756 28.891 2.95347C28.7583 2.7891 28.5369 2.736 28.3479 2.82294Z" fill="#8EC63F"/>
</svg>
